#!OML:ASF F:\VICON\USERDATA\INSTALL\rory3\rory3.ASF
:FULLY-SPECIFIED
:DEGREES
29
root -0.2696458958473899 17.116895658788337 5.086911539099668 4.7385998728356835 6.102175944897499 0.22657047840993894
lfemur 16.079242956018597 -3.1616279549498043 -25.435030563864974
ltibia 47.15496397476375
lfoot -4.492747052883949 -10.283513417709251
ltoes -27.629223302941263
rfemur -41.63329611808864 2.383841163466114 23.812581862876954
rtibia 48.40976475511982
rfoot 10.22258644974977 -6.6283064097139235
rtoes -1.813474601001222
lowerback 14.918566404442346 -0.9341407632277579 -3.011161046198942
upperback -1.3125658905410929 -1.5865536675691865 1.9598753210065623
thorax -9.6241948005636 -0.536466067504186 4.682860751069367
lowerneck -21.575062716063965 -2.7002727299244302 -2.006495234889588
upperneck 13.902377905664169 -3.2134048769904315 1.8542426782954733
head 7.820069417308625 -1.5204329983495792 0.4886066137394184
lclavicle -1.3354294505565826e-15 2.0689994752511544e-15
lhumerus -33.3962204945734 -19.606293674419753 98.1060070957421
lradius 121.36201397616937
lwrist 36.41279855943809
lhand -27.232666587899192 2.303334977084607
lfingers 7.12502
lthumb -0.644642226877066 32.25312133850651
rclavicle -1.3354294505565826e-15 2.0689994752511544e-15
rhumerus -63.84543421347189 0.9629104992409978 -91.23067048193954
rradius 99.60969624391568
rwrist -6.054131597520199
rhand -16.656040338712774 39.632123456922294
rfingers 7.12502
rthumb 9.566720430825178 9.978227159186504
30
root -0.37002965599415233 17.39260619302897 5.432271076870851 3.763226047671642 5.7981015886731395 -1.2339710605462852
lfemur 11.416477544571611 -2.7584276349776964 -22.650133452170753
ltibia 60.09139782587884
lfoot 9.612596907696965 -14.473684304258365
ltoes -29.174914409239
rfemur -39.779966388986296 1.8225230960149204 26.432287256283956
rtibia 56.964232950271764
rfoot 10.871560640363992 -3.789578862391883
rtoes 8.858984228515052
lowerback 15.107667496537985 -0.9992484779758497 -1.6361365029701005
upperback -1.3680902373238597 -1.4651869262920556 2.7273842663275634
thorax -9.76896028119003 -0.5064846557989079 4.243728864850984
lowerneck -21.32342343680855 -2.525657538022193 -1.9604564137264369
upperneck 14.408053104173106 -2.8901217753841943 1.5088318871795992
head 7.907040509813522 -1.4323435591606737 0.4027966415862464
lclavicle -1.9082112285416357e-15 1.6535306131530007e-15
lhumerus -37.705843782058935 -18.64394405329144 99.05622112911375
lradius 120.26292357924277
lwrist 35.916003515667406
lhand -26.608414490111088 2.645115980642341
lfingers 7.12502
lthumb -0.04179231655891846 32.59182302596349
rclavicle -1.9082112285416357e-15 1.6535306131530007e-15
rhumerus -65.22839664419993 -0.42062803704982343 -89.91328844864468
rradius 98.2769225613306
rwrist -5.46748644105237
rhand -16.3960882226692 39.59722055804446
rfingers 7.12502
rthumb 9.817468411936074 9.969849860034456
31
root -0.4888289067873941 17.802143015927655 6.055699215226298 2.8393544107454147 5.636379391819658 -2.5469157780053253
lfemur 3.4499739949174053 -1.103738471371482 -19.714333234346505
ltibia 77.15380253989221
lfoot 23.569842461082377 -18.12967831266318
ltoes -23.55986958210326
rfemur -35.181041475023285 2.049293824500647 28.787559069059988
rtibia 58.97973648006604
rfoot 9.262038658011718 -2.9737048088904188
rtoes 17.304077697954224
lowerback 15.463911425991578 -0.9658300257690302 -0.246900126472809
upperback -1.3652948065164332 -1.2027125705603052 3.3424188578682816
thorax -9.961540060133164 -0.41825394441791774 3.637520912484982
lowerneck -20.929707834008187 -2.6572169530114227 -1.9624411701476576
upperneck 14.70388019751387 -3.096892263000801 1.5582026017196844
head 7.940697051432059 -1.5390526589678832 0.40048008553238823
lclavicle -2.3616152776377812e-15 1.324634601722664e-15
lhumerus -42.15880448426426 -18.478253732297077 99.94344955139768
lradius 118.45690184076291
lwrist 35.51809323131089
lhand -25.74604052312135 2.639827397507481
lfingers 7.12502
lthumb 0.791051707457008 32.59053541856541
rclavicle -2.3616152776377812e-15 1.324634601722664e-15
rhumerus -65.22752536314434 -0.6214510620945877 -89.8292602455436
rradius 97.84430083976794
rwrist -5.399992573546017
rhand -15.839494124743299 39.4788997015395
rfingers 7.12502
rthumb 10.354703745619954 9.818313247218603
32
root -0.5974789811804148 18.24047352883654 7.911304285702243 2.2077843958765335 5.330163561715401 -3.715723111262018
lfemur -6.135899055159301 1.6405720675634594 -16.788310612358117
ltibia 92.91370600199582
lfoot 30.52176731085687 -19.009876247355255
ltoes -16.573551229945657
rfemur -28.428936545797 2.8742716410710694 31.197207576830348
rtibia 58.712841966570736
rfoot 5.281468593426499 -3.944777357623599
rtoes 20.202132855115455
lowerback 15.808741362706183 -0.6997711153669313 1.208930982149164
upperback -1.120491532319101 -0.6157079543826263 3.7440502179131165
thorax -10.006034914854304 -0.19386232168853057 2.940206734571325
lowerneck -20.61360148596379 -3.0577777690697028 -1.9013249854506094
upperneck 14.868536148859278 -3.7921482426865847 1.920168439281209
head 7.959575905700698 -1.8121880065135785 0.45877878116324095
lclavicle -1.8495160661495033e-15 1.696062254345939e-15
lhumerus -45.13442837346436 -18.374599313004747 100.67250463372064
lradius 116.15436361230304
lwrist 34.567100146120396
lhand -24.735779531312637 3.200958983648899
lfingers 7.12502
lthumb 1.7667119251546237 33.157757501611805
rclavicle -1.8495160661495033e-15 1.696062254345939e-15
rhumerus -62.61895753309338 1.067127818567938 -91.29861195148669
rradius 98.95136772240548
rwrist -6.300936546591829
rhand -15.408586431300188 40.05452559654725
rfingers 7.12502
rthumb 10.770545489140856 10.362254093357821
33
root -0.6566021204866024 18.62347836180041 9.887675239431191 1.7471499398203112 4.56370387048771 -4.494375755497662
lfemur -16.278205142973793 4.649655218102504 -15.124211821096093
ltibia 103.32501880949424
lfoot 25.775115069676062 -16.98216440595205
ltoes -13.992222364970718
rfemur -22.368291749241926 3.334504468250976 32.76463905338856
rtibia 57.27309418076866
rfoot 2.5055421462414773 -5.400676401624966
rtoes 19.638805945110402
lowerback 16.02842733502953 -0.25983906175738425 2.195754756710066
upperback -0.8778984403559916 0.1497713829649452 3.7250830295362927
thorax -10.016313336505752 0.11373433065737504 2.073353459180715
lowerneck -20.233008841042796 -3.5112313887417477 -1.8921742722844366
upperneck 14.933101746416535 -4.577611371084202 2.3119129543179042
head 7.9456441302416145 -2.1110750944740517 0.53030329533714
lclavicle -1.8945712961996864e-15 1.6633963872813404e-15
lhumerus -47.87827174862406 -18.303284659345145 101.03281391037935
lradius 114.15520961464074
lwrist 33.641733460062106
lhand -24.382252255045753 3.2779626961296637
lfingers 7.12502
lthumb 2.10814537606417 33.24345083878255
rclavicle -1.8945712961996864e-15 1.6633963872813404e-15
rhumerus -58.94336232840834 3.191494903729626 -93.45485392108563
rradius 100.57842591411595
rwrist -7.483430479566835
rhand -15.073698347858103 40.117499584424365
rfingers 7.12502
rthumb 11.093804284260282 10.452498064913962
34
root -0.693470404059307 18.8218786304721 10.23024385429101 1.5832054855448603 3.4126246929593314 -4.969252529502993
lfemur -25.66616487633763 7.399003272456626 -14.38284150382385
ltibia 107.86359214377293
lfoot 15.881620687727274 -13.61349652809012
ltoes -14.814775612764635
rfemur -16.29621028781661 3.7567276665423246 34.149654214277845
rtibia 54.81209224345507
rfoot -0.7175194612571998 -6.160651832657629
rtoes 17.138632027221785
lowerback 16.041142452413688 0.2910108953008428 3.112804008045346
upperback -0.6824923565098406 1.0430624658669474 3.457414907845295
thorax -9.930085671645564 0.47566038410943623 1.0127772354351305
lowerneck -19.760482101703595 -3.8900465972470473 -1.8594658217469135
upperneck 15.021978409984712 -5.244053863004222 2.583598462015117
head 7.933759191721543 -2.3658425716502745 0.5630375600274732
lclavicle -1.8393508687399872e-15 1.7035270254534621e-15
lhumerus -51.08681578373842 -17.719469897556344 101.25564781544712
lradius 112.57704887433756
lwrist 33.598676381517066
lhand -24.20794109370021 3.3987944098779876
lfingers 7.12502
lthumb 2.276470704139232 33.368798716582916
rclavicle -1.8393508687399872e-15 1.7035270254534621e-15
rhumerus -54.565997327599455 5.852343094993702 -95.55778020474526
rradius 102.48570161937607
rwrist -8.503167473688887
rhand -15.35370304932777 39.6752211875269
rfingers 7.12502
rthumb 10.823691519942233 10.04951414946138
